<svg width="102" height="48" viewBox="0 0 102 48" fill="none" xmlns="http://www.w3.org/2000/svg">
    <g clip-path="url(#clip0)">
        <path fill-rule="evenodd" clip-rule="evenodd" d="M39.2373 21.688C37.0929 21.688 35.8439 20.2126 35.8439 18.1466C35.8439 16.0715 37.1422 14.6057 39.1193 14.6057C40.5356 14.6057 41.8439 15.2845 42.0996 16.9762H40.4471C40.29 16.4451 39.857 16.0811 39.139 16.0811C38.1257 16.0811 37.5257 16.9666 37.5257 18.1764C37.5257 19.4355 38.1848 20.2222 39.2277 20.2222C39.926 20.2222 40.4077 19.8582 40.5947 19.3173H42.2373C41.9718 20.8715 40.7422 21.688 39.2373 21.688Z" fill="#273777"/>
        <path fill-rule="evenodd" clip-rule="evenodd" d="M48.6524 14.7042V21.5894H47.0883V18.7958H44.6194V21.5894H43.0455V14.7042H44.6194V17.399H47.0883V14.7042H48.6524Z" fill="#273777"/>
        <path fill-rule="evenodd" clip-rule="evenodd" d="M55.6869 18.6582C55.6869 20.8028 54.3982 21.688 52.8046 21.688C51.2113 21.688 49.9031 20.8028 49.9031 18.6582V14.7042H51.5359V18.7468C51.5359 19.6025 51.9785 20.2025 52.8145 20.2025C53.6408 20.2025 54.0539 19.6025 54.0539 18.7468V14.7042H55.6869V18.6582ZM38.4208 30.9646C36.788 30.9646 35.8439 29.9513 35.8439 28.5446H37.3683C37.3683 29.2035 37.7324 29.6365 38.47 29.6365C38.9129 29.6365 39.2865 29.42 39.2865 28.9873C39.2865 28.5153 38.8929 28.2988 38.0274 27.9838C36.9651 27.5905 36.0503 27.0594 36.0503 25.9087C36.0503 24.6102 37.0535 23.8821 38.3324 23.8821C39.8373 23.8821 40.703 24.856 40.703 26.0168H39.2767C39.2373 25.5542 38.9324 25.2003 38.3422 25.2003C37.9094 25.2003 37.6144 25.4264 37.6144 25.7905C37.6144 26.1641 37.9193 26.3905 38.7356 26.7249C39.9947 27.2365 40.8801 27.7478 40.8801 28.9971C40.8801 30.3052 39.8471 30.9646 38.4208 30.9646ZM44.4617 28.8003L43.9504 28.84C43.2028 28.8986 42.8782 29.1252 42.8782 29.4102C42.8782 29.6464 43.0748 29.7942 43.3895 29.7942C43.911 29.7942 44.4321 29.4003 44.4617 28.8003ZM46.2915 29.6464V30.8661H46.0159C45.5437 30.8661 45.0617 30.7284 44.8849 30.2365C44.511 30.6789 43.9307 30.9646 43.1536 30.9646C42.0716 30.9646 41.373 30.4432 41.373 29.5084C41.373 28.4562 42.2388 27.9641 43.5568 27.856L44.4617 27.7873V27.7087C44.4617 27.2168 44.1568 26.971 43.7634 26.971C43.2422 26.971 43.0356 27.3841 43.0159 27.6496H41.5994C41.6782 26.5969 42.4748 25.8496 43.7536 25.8496C44.9341 25.8496 45.8979 26.4988 45.8979 27.9151V29.253C45.8979 29.5478 46.006 29.6464 46.2915 29.6464ZM46.9221 30.8661H48.4075V25.9476H46.9221V30.8661ZM46.7351 24.5414C46.7351 24.0099 47.1681 23.6166 47.6795 23.6166C48.1812 23.6166 48.5844 24.0099 48.5844 24.5414C48.5844 25.0232 48.1812 25.4562 47.6795 25.4562C47.1681 25.4562 46.7351 25.0232 46.7351 24.5414ZM54.4571 28.171V30.8661H52.8933V28.407C52.8933 27.6102 52.48 27.2264 51.9292 27.2264C51.4374 27.2264 50.9753 27.5611 50.9753 28.3971V30.8661H49.411V25.9476H50.6507L50.8376 26.5382H50.9654C51.1918 26.2525 51.5457 25.8496 52.4701 25.8496C53.6113 25.8496 54.4571 26.6464 54.4571 28.171ZM57.3803 30.9646C56.4261 30.9646 55.7374 30.5707 55.7374 29.253V27.1478H54.7635V26.0365H55.0881C55.6 26.0365 55.8655 25.751 55.8655 25.3574V24.7084H57.2426V25.9476H58.4916V27.1478H57.2426V29.1052C57.2426 29.4791 57.4096 29.656 57.6753 29.656C57.8817 29.656 58.0588 29.5577 58.1571 29.5084L58.4423 30.6789C58.2162 30.8168 57.8522 30.9646 57.3803 30.9646ZM60.2633 27.7777H62.2993C62.2795 27.4038 61.8862 27.02 61.3059 27.02C60.8039 27.02 60.4305 27.2759 60.2633 27.7777ZM63.7256 29.2429C63.5091 30.3446 62.4961 30.9646 61.3352 30.9646C59.7714 30.9646 58.7581 29.9119 58.7581 28.407C58.7581 26.8725 59.8795 25.8496 61.2271 25.8496C62.5451 25.8496 63.8633 26.6267 63.6766 28.84H60.214C60.3222 29.4102 60.6665 29.7545 61.3451 29.7545C61.7975 29.7545 62.1613 29.5675 62.3091 29.2429H63.7256Z" fill="#273777"/>
        <path fill-rule="evenodd" clip-rule="evenodd" d="M64.3564 28.4267H67.8976V27.1875H64.3564V28.4267Z" fill="#273777"/>
        <path fill-rule="evenodd" clip-rule="evenodd" d="M70.4559 29.5084C70.8788 29.5084 71.1348 29.2136 71.1348 28.6134V23.9806H72.6788V28.6922C72.6788 30.138 71.7838 30.9646 70.5151 30.9646C69.0394 30.9646 68.2525 30.0594 68.233 28.7215H69.7478C69.7968 29.1742 69.9838 29.5084 70.4559 29.5084ZM73.4572 28.6432V25.9476H75.0212V28.407C75.0212 29.2035 75.4143 29.5873 75.9653 29.5873C76.4572 29.5873 76.89 29.253 76.89 28.4166V25.9476H78.454V30.8661H77.2146L77.0276 30.2759H76.9097C76.6836 30.5612 76.3392 30.9646 75.4244 30.9646C74.2737 30.9646 73.4572 30.1678 73.4572 28.6432ZM81.3572 30.9646C80.039 30.9646 79.2031 30.2956 79.1242 29.1644H80.5703C80.6095 29.6365 80.9932 29.8235 81.3769 29.8235C81.6622 29.8235 81.9277 29.725 81.9277 29.4693C81.9277 29.1841 81.6228 29.0464 81.0425 28.8986C80.3144 28.7215 79.2718 28.4267 79.2718 27.3939C79.2718 26.4594 80.108 25.8496 81.2686 25.8496C82.4587 25.8496 83.2065 26.5186 83.2851 27.4626H81.8981C81.8491 27.1678 81.6033 26.9806 81.2097 26.9806C80.9538 26.9806 80.7671 27.089 80.7671 27.3151C80.7671 27.5511 80.9932 27.6592 81.6816 27.8464C82.6853 28.1119 83.4033 28.5548 83.4033 29.4594C83.4033 30.4626 82.5277 30.9646 81.3572 30.9646ZM86.1878 30.9646C85.2339 30.9646 84.5452 30.5708 84.5452 29.253V27.1479H83.5713V26.0365H83.8959C84.4075 26.0365 84.673 25.7511 84.673 25.3575V24.7084H86.0501V25.9476H87.2991V27.1479H86.0501V29.1052C86.0501 29.4791 86.2174 29.656 86.4829 29.656C86.6895 29.656 86.8666 29.5577 86.9649 29.5084L87.2501 30.6789C87.024 30.8168 86.66 30.9646 86.1878 30.9646ZM87.9888 30.8661H89.4743V25.9476H87.9888V30.8661ZM87.8021 24.5415C87.8021 24.0099 88.2349 23.6166 88.7462 23.6166C89.2477 23.6166 89.6511 24.0099 89.6511 24.5415C89.6511 25.0232 89.2477 25.4562 88.7462 25.4562C88.2349 25.4562 87.8021 25.0232 87.8021 24.5415Z" fill="#273777"/>
        <path fill-rule="evenodd" clip-rule="evenodd" d="M95.5238 28.1709V30.866H93.96V28.4069C93.96 27.6101 93.547 27.2263 92.996 27.2263C92.5041 27.2263 92.0421 27.5611 92.0421 28.397V30.866H90.478V25.9475H91.7174L91.9044 26.5382H92.0322C92.2583 26.2524 92.6125 25.8495 93.5371 25.8495C94.6778 25.8495 95.5238 26.6463 95.5238 28.1709ZM97.7091 27.7776H99.7453C99.7256 27.4037 99.3323 27.0199 98.7517 27.0199C98.2502 27.0199 97.8766 27.2758 97.7091 27.7776ZM101.172 29.2428C100.955 30.3446 99.9421 30.9645 98.7815 30.9645C97.2175 30.9645 96.2042 29.9118 96.2042 28.4069C96.2042 26.8724 97.3256 25.8495 98.6731 25.8495C99.9914 25.8495 101.309 26.6266 101.122 28.8399H97.6601C97.7685 29.4101 98.1126 29.7544 98.7914 29.7544C99.2436 29.7544 99.6076 29.5675 99.7552 29.2428H101.172Z" fill="#273777"/>
        <path fill-rule="evenodd" clip-rule="evenodd" d="M38.495 37.2389V37.8174H35.903V33.9236H36.5316V37.2389H38.495Z" fill="#273777"/>
        <path fill-rule="evenodd" clip-rule="evenodd" d="M40.9069 36.1377C40.8958 35.7704 40.6232 35.4422 40.167 35.4422C39.7554 35.4422 39.4662 35.7148 39.3825 36.1377H40.9069ZM41.4407 36.5656H39.3606C39.405 37.061 39.672 37.389 40.2003 37.389C40.5007 37.389 40.7735 37.2558 40.8902 36.9832H41.4407C41.3018 37.5668 40.7791 37.8733 40.1947 37.8733C39.3383 37.8733 38.8098 37.2945 38.8098 36.4156C38.8098 35.5703 39.3883 34.9804 40.1503 34.9804C40.8847 34.9804 41.5132 35.4589 41.4407 36.5656ZM44.7325 37.8733C43.8316 37.8733 43.3254 37.2389 43.3254 36.4325C43.3254 35.6089 43.9261 34.9804 44.7216 34.9804C45.4058 34.9804 45.9454 35.42 46.0065 36.0541H45.4336C45.3835 35.7648 45.1443 35.4922 44.7103 35.4922C44.2209 35.4922 43.8981 35.8871 43.8981 36.4325C43.8981 36.9774 44.1765 37.3728 44.7272 37.3728C45.1054 37.3728 45.3558 37.15 45.4391 36.8549H46.0176C45.9343 37.4559 45.4169 37.8733 44.7325 37.8733ZM48.4907 36.1377C48.4793 35.7704 48.207 35.4422 47.7507 35.4422C47.3392 35.4422 47.0499 35.7148 46.9663 36.1377H48.4907ZM49.0245 36.5656H46.944C46.9888 37.061 47.2558 37.389 47.784 37.389C48.0844 37.389 48.357 37.2558 48.4737 36.9832H49.0245C48.8855 37.5668 48.3626 37.8733 47.7785 37.8733C46.9218 37.8733 46.3933 37.2945 46.3933 36.4156C46.3933 35.5703 46.9718 34.9804 47.734 34.9804C48.4684 34.9804 49.097 35.4589 49.0245 36.5656ZM52.0664 36.1877V37.8174H51.4715V36.288C51.4715 35.7592 51.1931 35.5091 50.8149 35.5091C50.4923 35.5091 50.1696 35.7259 50.1696 36.2655V37.8174H49.5744V35.0362H50.0249L50.1085 35.3813H50.1641C50.2811 35.2143 50.5034 34.9804 51.0152 34.9804C51.6104 34.9804 52.0664 35.3922 52.0664 36.1877ZM53.712 37.8733C53.3061 37.8733 52.9721 37.6893 52.9721 37.0777V35.5033H52.4272V35.0804H52.5939C52.8887 35.0804 53.0279 34.947 53.0279 34.6911V34.3352H53.5453V35.0362H54.2181V35.5033H53.5453V37.0219C53.5453 37.2667 53.6565 37.367 53.8176 37.367C53.9235 37.367 54.0127 37.3225 54.0627 37.2892L54.2016 37.7396C54.0902 37.8063 53.9346 37.8733 53.712 37.8733ZM56.2538 34.9804V35.5592C56.2146 35.5478 56.0923 35.5311 56.0034 35.5311C55.6139 35.5311 55.2357 35.7981 55.2357 36.4545V37.8174H54.646V35.0362H55.0967L55.1856 35.4258H55.2357C55.386 35.2032 55.6197 34.9804 56.0701 34.9804H56.2538ZM58.623 36.1377C58.6118 35.7704 58.3392 35.4422 57.883 35.4422C57.4715 35.4422 57.1822 35.7148 57.0986 36.1377H58.623ZM59.157 36.5656H57.0766C57.1211 37.061 57.3881 37.389 57.9163 37.389C58.2167 37.389 58.4893 37.2558 58.606 36.9832H59.157C59.0178 37.5668 58.4951 37.8733 57.9108 37.8733C57.0544 37.8733 56.5259 37.2945 56.5259 36.4156C56.5259 35.5703 57.1044 34.9804 57.8666 34.9804C58.6007 34.9804 59.2293 35.4589 59.157 36.5656ZM63.7281 36.1485V37.8174H63.1438V36.3433C63.1438 35.8204 62.8937 35.5202 62.4486 35.5202C62.1093 35.5202 61.7814 35.7759 61.7814 36.2822V37.8174H61.1803V33.868H61.7814V35.3588H61.8367C61.9703 35.1974 62.2596 34.9804 62.66 34.9804C63.3219 34.9804 63.7281 35.4033 63.7281 36.1485ZM66.5099 36.4267C66.5099 35.9151 66.165 35.4922 65.6534 35.4922C65.1472 35.4922 64.8079 35.9151 64.8079 36.4267C64.8079 36.9385 65.1414 37.3614 65.6587 37.3614C66.1708 37.3614 66.5099 36.9441 66.5099 36.4267ZM64.2294 36.4211C64.2294 35.5869 64.8412 34.9804 65.6534 34.9804C66.4656 34.9804 67.0884 35.5814 67.0884 36.4267C67.0884 37.2667 66.4823 37.8733 65.6587 37.8733C64.8468 37.8733 64.2294 37.2667 64.2294 36.4211ZM68.5819 37.8733C67.8976 37.8733 67.4638 37.4781 67.4527 36.9105H68.0087C68.0143 37.2834 68.3258 37.4223 68.5931 37.4223C68.8487 37.4223 69.0602 37.3112 69.0602 37.083C69.0602 36.8218 68.7929 36.7051 68.4483 36.6048C68.0423 36.4881 67.5414 36.2991 67.5414 35.7868C67.5414 35.2977 67.9698 34.9804 68.5428 34.9804C69.1716 34.9804 69.5387 35.3699 69.5609 35.8259H69.0213C69.0102 35.5928 68.8043 35.4258 68.5206 35.4258C68.3035 35.4258 68.1146 35.5422 68.1146 35.7481C68.1146 35.9707 68.3202 36.0765 68.6931 36.193C69.2158 36.3491 69.6273 36.5656 69.6273 37.083C69.6273 37.5949 69.1716 37.8733 68.5819 37.8733ZM72.2868 36.4267C72.2868 35.8818 71.9586 35.4978 71.4971 35.4978C71.035 35.4978 70.7238 35.8818 70.7238 36.4267C70.7238 36.9774 71.035 37.3559 71.4971 37.3559C71.9639 37.3559 72.2868 36.9774 72.2868 36.4267ZM72.8542 36.4267C72.8542 37.3 72.2812 37.8733 71.5579 37.8733C71.1689 37.8733 70.8738 37.7118 70.7238 37.4448V38.93H70.1616V35.0362H70.5901L70.6737 35.4033H70.7349C70.8905 35.1863 71.1464 34.9804 71.5857 34.9804C72.2979 34.9804 72.8542 35.5592 72.8542 36.4267ZM73.3903 37.8174H73.963V35.0362H73.3903V37.8174ZM73.2955 34.2632C73.2955 34.0517 73.4734 33.8847 73.6793 33.8847C73.8852 33.8847 74.0519 34.0517 74.0519 34.2632C74.0519 34.4685 73.8852 34.6411 73.6793 34.6411C73.4734 34.6411 73.2955 34.4685 73.2955 34.2632ZM75.6761 37.8733C75.2699 37.8733 74.9361 37.6893 74.9361 37.0777V35.5033H74.391V35.0804H74.5579C74.8528 35.0804 74.992 34.947 74.992 34.6911V34.3352H75.5091V35.0362H76.1821V35.5033H75.5091V37.0219C75.5091 37.2667 75.6203 37.367 75.7817 37.367C75.8875 37.367 75.9762 37.3225 76.0262 37.2892L76.1654 37.7396C76.0543 37.8063 75.8982 37.8733 75.6761 37.8733ZM78.2481 36.677V36.5323L77.8252 36.5656C77.3192 36.6048 77.0411 36.7771 77.0411 37.0497C77.0411 37.3 77.2467 37.4115 77.4862 37.4115C77.8586 37.4115 78.2481 37.1664 78.2481 36.677ZM79.0437 37.3445V37.8174H78.9381C78.6655 37.8174 78.454 37.7229 78.376 37.4504C78.1592 37.7118 77.8088 37.8733 77.4195 37.8733C76.8796 37.8733 76.4681 37.606 76.4681 37.083C76.4681 36.4989 76.963 36.2211 77.7194 36.1597L78.2481 36.1208V36.0541C78.2481 35.6759 78.0534 35.4258 77.7088 35.4258C77.3248 35.4258 77.1691 35.7037 77.1358 35.9318H76.5906C76.6406 35.3977 77.0411 34.9804 77.7029 34.9804C78.3371 34.9804 78.7989 35.3699 78.7989 36.0932V37.0777C78.7989 37.2834 78.8769 37.3445 79.0437 37.3445Z" fill="#273777"/>
        <path fill-rule="evenodd" clip-rule="evenodd" d="M79.5159 37.8174H80.0941V33.868H79.5159V37.8174Z" fill="#273777"/>
        <path fill-rule="evenodd" clip-rule="evenodd" d="M80.7745 37.8175H81.3474V35.0363H80.7745V37.8175ZM80.6797 34.2632C80.6797 34.0518 80.8578 33.8848 81.0637 33.8848C81.2694 33.8848 81.4364 34.0518 81.4364 34.2632C81.4364 34.4686 81.2694 34.6411 81.0637 34.6411C80.8578 34.6411 80.6797 34.4686 80.6797 34.2632ZM83.972 36.1377C83.9612 35.7704 83.6883 35.4422 83.2323 35.4422C82.8205 35.4422 82.5313 35.7148 82.4479 36.1377H83.972ZM84.5061 36.5657H82.4257C82.4701 37.0611 82.7374 37.389 83.2657 37.389C83.566 37.389 83.8384 37.2559 83.9554 36.9833H84.5061C84.3671 37.5669 83.8442 37.8733 83.2601 37.8733C82.4034 37.8733 81.8752 37.2945 81.8752 36.4156C81.8752 35.5703 82.4537 34.9804 83.2156 34.9804C83.95 34.9804 84.5783 35.4589 84.5061 36.5657ZM86.6636 34.9804V35.5592C86.6247 35.5478 86.5021 35.5312 86.4135 35.5312C86.0239 35.5312 85.6457 35.7982 85.6457 36.4545V37.8175H85.0561V35.0363H85.5065L85.5954 35.4258H85.6457C85.7958 35.2033 86.0295 34.9804 86.4799 34.9804H86.6636ZM35.8586 42.2272V40.5974H36.4535V42.1269C36.4535 42.6556 36.7264 42.9057 37.1046 42.9057C37.4272 42.9057 37.7387 42.6892 37.7387 42.1494V40.5974H38.3394V43.3787H37.8834L37.7998 43.0338H37.7498C37.6273 43.2006 37.4105 43.4345 36.9042 43.4345C36.309 43.4345 35.8586 43.0227 35.8586 42.2272ZM41.5036 41.7489V43.3787H40.9087V41.849C40.9087 41.3205 40.6303 41.0701 40.2521 41.0701C39.9295 41.0701 39.6069 41.2871 39.6069 41.8265V43.3787H39.0117V40.5974H39.4621L39.5455 40.9423H39.6013C39.7183 40.7753 39.9406 40.5419 40.4524 40.5419C41.0474 40.5419 41.5036 40.9534 41.5036 41.7489ZM42.1526 43.3787H42.7254V40.5974H42.1526V43.3787ZM42.0579 39.8244C42.0579 39.6129 42.2358 39.4459 42.4417 39.4459C42.6476 39.4459 42.8145 39.6129 42.8145 39.8244C42.8145 40.03 42.6476 40.2023 42.4417 40.2023C42.2358 40.2023 42.0579 40.03 42.0579 39.8244Z" fill="#273777"/>
        <path fill-rule="evenodd" clip-rule="evenodd" d="M45.9515 40.5974L44.9614 43.3786H44.1381L43.148 40.5974H43.7488L44.5276 42.8612H44.5832L45.3563 40.5974H45.9515Z" fill="#273777"/>
        <path fill-rule="evenodd" clip-rule="evenodd" d="M48.2281 41.6989C48.2168 41.3313 47.9444 41.0037 47.4882 41.0037C47.0767 41.0037 46.7874 41.276 46.7038 41.6989H48.2281ZM48.762 42.1269H46.6815C46.7263 42.6223 46.993 42.9502 47.5215 42.9502C47.8219 42.9502 48.0945 42.8168 48.2112 42.5445H48.762C48.623 43.1283 48.1001 43.4345 47.516 43.4345C46.6593 43.4345 46.1308 42.8557 46.1308 41.977C46.1308 41.1312 46.7093 40.5418 47.4715 40.5418C48.2059 40.5418 48.8345 41.0201 48.762 42.1269ZM50.9194 40.5418V41.1204C50.8805 41.109 50.7583 41.0923 50.6691 41.0923C50.2798 41.0923 49.9016 41.3596 49.9016 42.0157V43.3786H49.3119V40.5974H49.7624L49.8513 40.9867H49.9016C50.0516 40.7642 50.2853 40.5418 50.7358 40.5418H50.9194ZM52.3597 43.4345C51.6756 43.4345 51.2415 43.0394 51.2304 42.4719H51.7865C51.7923 42.8446 52.1038 42.9838 52.3708 42.9838C52.6267 42.9838 52.8379 42.8724 52.8379 42.6442C52.8379 42.3833 52.5711 42.2663 52.226 42.166C51.8201 42.049 51.3193 41.8601 51.3193 41.3482C51.3193 40.8589 51.7478 40.5418 52.3205 40.5418C52.9493 40.5418 53.3164 40.9311 53.3389 41.3871H52.799C52.7879 41.1537 52.5823 40.9867 52.2983 40.9867C52.0815 40.9867 51.8923 41.1037 51.8923 41.3096C51.8923 41.5317 52.098 41.6375 52.4708 41.7542C52.9935 41.9101 53.4053 42.1269 53.4053 42.6442C53.4053 43.1561 52.9493 43.4345 52.3597 43.4345ZM53.9414 43.3786H54.5144V40.5974H53.9414V43.3786ZM53.8467 39.8244C53.8467 39.6129 54.0248 39.4459 54.2307 39.4459C54.4363 39.4459 54.6033 39.6129 54.6033 39.8244C54.6033 40.03 54.4363 40.2023 54.2307 40.2023C54.0248 40.2023 53.8467 40.03 53.8467 39.8244ZM56.2272 43.4345C55.8212 43.4345 55.4875 43.2508 55.4875 42.6389V41.0645H54.9423V40.6419H55.1091C55.4039 40.6419 55.5428 40.5082 55.5428 40.2523V39.8964H56.0605V40.5974H56.7335V41.0645H56.0605V42.5834C56.0605 42.8279 56.1716 42.9282 56.3331 42.9282C56.4387 42.9282 56.5279 42.8837 56.5779 42.8501L56.7168 43.3008C56.6054 43.3675 56.4498 43.4345 56.2272 43.4345ZM58.7993 42.238V42.0935L58.3766 42.1269C57.8703 42.166 57.5924 42.3383 57.5924 42.6109C57.5924 42.8613 57.7981 42.9727 58.0371 42.9727C58.41 42.9727 58.7993 42.7279 58.7993 42.238ZM59.5948 42.9057V43.3786H59.489C59.2166 43.3786 59.0052 43.2842 58.9274 43.0116C58.7103 43.273 58.3602 43.4345 57.9706 43.4345C57.431 43.4345 57.0192 43.1672 57.0192 42.6442C57.0192 42.0602 57.5144 41.7823 58.2708 41.7206L58.7993 41.682V41.6155C58.7993 41.2368 58.6045 40.9867 58.2599 40.9867C57.8762 40.9867 57.7203 41.2651 57.6869 41.493H57.1415C57.192 40.9592 57.5924 40.5418 58.2543 40.5418C58.8882 40.5418 59.3503 40.9311 59.3503 41.6544V42.6389C59.3503 42.8446 59.4281 42.9057 59.5948 42.9057ZM60.0564 43.3786H60.6293V40.5974H60.0564V43.3786ZM59.9616 39.8244C59.9616 39.6129 60.1397 39.4459 60.3456 39.4459C60.5513 39.4459 60.7185 39.6129 60.7185 39.8244C60.7185 40.03 60.5513 40.2023 60.3456 40.2023C60.1397 40.2023 59.9616 40.03 59.9616 39.8244ZM62.9174 40.5418V41.1204C62.8783 41.109 62.756 41.0923 62.6668 41.0923C62.2775 41.0923 61.8993 41.3596 61.8993 42.0157V43.3786H61.3097V40.5974H61.7604L61.8493 40.9867H61.8993C62.0496 40.7642 62.2833 40.5418 62.7338 40.5418H62.9174ZM65.2866 41.6989C65.2752 41.3313 65.0029 41.0037 64.5466 41.0037C64.1348 41.0037 63.8456 41.276 63.7622 41.6989H65.2866ZM65.8204 42.1269H63.7402C63.7844 42.6223 64.0517 42.9502 64.58 42.9502C64.8804 42.9502 65.1527 42.8168 65.2697 42.5445H65.8204C65.6812 43.1283 65.1585 43.4345 64.5744 43.4345C63.718 43.4345 63.1892 42.8557 63.1892 41.977C63.1892 41.1312 63.768 40.5418 64.53 40.5418C65.2644 40.5418 65.8927 41.0201 65.8204 42.1269ZM71.849 41.71V43.3786H71.2593V41.7375C71.2593 41.2871 71.0145 41.0757 70.7088 41.0757C70.4196 41.0757 70.1412 41.3096 70.1412 41.7542V43.3786H69.5515V41.7709C69.5515 41.3038 69.3014 41.0701 69.0122 41.0701C68.734 41.0701 68.4336 41.2871 68.4336 41.7431V43.3786H67.844V40.5974H68.2944L68.3781 40.9423H68.4281C68.5559 40.7364 68.8229 40.5418 69.1956 40.5418C69.624 40.5418 69.8966 40.8197 69.9914 41.0537H70.0411C70.1634 40.8031 70.4249 40.5474 70.8811 40.5474C71.4483 40.5474 71.849 40.9092 71.849 41.71ZM74.4629 41.6989C74.4516 41.3313 74.1792 41.0037 73.7227 41.0037C73.3112 41.0037 73.0222 41.276 72.9386 41.6989H74.4629ZM73.5115 40.2915L72.9386 39.5404H73.5727L73.9178 40.2915H73.5115ZM74.9967 42.1269H72.9163C72.961 42.6223 73.2278 42.9502 73.7563 42.9502C74.0565 42.9502 74.3293 42.8168 74.446 42.5445H74.9967C74.8575 43.1283 74.3349 43.4345 73.7508 43.4345C72.8941 43.4345 72.3656 42.8557 72.3656 41.977C72.3656 41.1312 72.9441 40.5418 73.7063 40.5418C74.4405 40.5418 75.069 41.0201 74.9967 42.1269ZM77.1542 40.5418V41.1204C77.1153 41.109 76.993 41.0923 76.9039 41.0923C76.5146 41.0923 76.1364 41.3596 76.1364 42.0157V43.3786H75.5467V40.5974H75.9972L76.0863 40.9867H76.1364C76.2867 40.7642 76.5201 40.5418 76.9708 40.5418H77.1542ZM79.5234 41.6989C79.512 41.3313 79.2397 41.0037 78.7834 41.0037C78.3719 41.0037 78.0826 41.276 77.9993 41.6989H79.5234ZM80.0572 42.1269H77.9768C78.0215 42.6223 78.2883 42.9502 78.8168 42.9502C79.1174 42.9502 79.3898 42.8168 79.5067 42.5445H80.0572C79.9183 43.1283 79.3953 43.4345 78.8115 43.4345C77.9546 43.4345 77.4261 42.8557 77.4261 41.977C77.4261 41.1312 78.0048 40.5418 78.767 40.5418C79.5012 40.5418 80.1297 41.0201 80.0572 42.1269Z" fill="#273777"/>
        <path fill-rule="evenodd" clip-rule="evenodd" d="M80.4897 41.8934H82.4924V41.4041H80.4897V41.8934Z" fill="#273777"/>
        <path fill-rule="evenodd" clip-rule="evenodd" d="M85.0343 41.6989C85.0232 41.3313 84.7506 41.0036 84.2944 41.0036C83.8828 41.0036 83.5933 41.276 83.51 41.6989H85.0343ZM85.5684 42.1268H83.4877C83.5324 42.6222 83.7995 42.9502 84.328 42.9502C84.6281 42.9502 84.9007 42.8168 85.0177 42.5444H85.5684C85.4292 43.1283 84.9065 43.4345 84.3222 43.4345C83.4658 43.4345 82.9372 42.8557 82.9372 41.977C82.9372 41.1312 83.5158 40.5418 84.2775 40.5418C85.0121 40.5418 85.6407 41.0201 85.5684 42.1268ZM88.6103 41.7489V43.3786H88.0149V41.8489C88.0149 41.3204 87.737 41.0701 87.3588 41.0701C87.0359 41.0701 86.7133 41.2871 86.7133 41.8265V43.3786H86.1184V40.5974H86.5688L86.6522 40.9422H86.7078C86.8245 40.7753 87.0471 40.5418 87.5589 40.5418C88.1541 40.5418 88.6103 40.9534 88.6103 41.7489ZM90.0498 40.5974H90.7617V41.0645H90.0498V43.3786H89.4824V41.0645H88.9711V40.5974H89.4824V40.2579C89.4824 39.7299 89.822 39.429 90.2668 39.429C90.5839 39.429 90.7954 39.5571 90.8676 39.6296L90.6842 40.0689C90.6231 40.0133 90.5061 39.9355 90.3613 39.9355C90.1668 39.9355 90.0498 40.0633 90.0498 40.3134V40.5974ZM92.8525 42.238V42.0935L92.4299 42.1268C91.9236 42.166 91.6455 42.3383 91.6455 42.6109C91.6455 42.8612 91.8513 42.9726 92.0903 42.9726C92.4632 42.9726 92.8525 42.7278 92.8525 42.238ZM93.6481 42.9057V43.3786H93.5422C93.2699 43.3786 93.0584 43.2841 92.9806 43.0116C92.7636 43.273 92.4132 43.4345 92.0239 43.4345C91.4843 43.4345 91.0725 43.1672 91.0725 42.6442C91.0725 42.0601 91.5676 41.7822 92.3243 41.7206L92.8525 41.682V41.6155C92.8525 41.2368 92.6578 40.9867 92.3129 40.9867C91.9292 40.9867 91.7735 41.2651 91.7402 41.493H91.1948C91.245 40.9592 91.6455 40.5418 92.3076 40.5418C92.9415 40.5418 93.4033 40.9311 93.4033 41.6544V42.6389C93.4033 42.8446 93.4811 42.9057 93.6481 42.9057ZM96.6059 41.7489V43.3786H96.0109V41.8489C96.0109 41.3204 95.7325 41.0701 95.3543 41.0701C95.032 41.0701 94.7089 41.2871 94.7089 41.8265V43.3786H94.1139V40.5974H94.5644L94.648 40.9422H94.7036C94.8205 40.7753 95.0428 40.5418 95.5547 40.5418C96.1499 40.5418 96.6059 40.9534 96.6059 41.7489ZM98.2518 43.4345C97.8455 43.4345 97.5118 43.2508 97.5118 42.6389V41.0645H96.9669V40.6419H97.1336C97.4284 40.6419 97.5674 40.5082 97.5674 40.2523V39.8964H98.085V40.5974H98.758V41.0645H98.085V42.5833C98.085 42.8279 98.1962 42.9282 98.3574 42.9282C98.4632 42.9282 98.5522 42.8837 98.6024 42.8501L98.7411 43.3008C98.63 43.3675 98.4743 43.4345 98.2518 43.4345ZM18.1958 7.97206C18.474 7.97206 18.766 7.94553 19.0674 7.89273C20.2364 7.68633 21.3732 7.10174 22.1867 6.28827C24.8982 3.57627 23.8235 1.65096 22.9415 0.744772H22.9413C22.4749 0.26553 21.7956 0.00936112 20.9763 0.00380322C19.649 -0.0116073 18.1484 0.650793 17.0833 1.71538C15.2623 3.5366 14.8328 5.9601 16.1056 7.2326C16.5894 7.71639 17.326 7.97206 18.1958 7.97206ZM17.3518 16.6204C18.4465 16.6204 19.6929 16.2205 20.417 15.4964C21.7681 14.1456 21.9649 12.2026 20.8654 11.0726H20.8657C19.8544 10.0335 17.0153 10.8867 15.835 11.953C14.9523 12.7503 14.7507 13.557 14.7371 14.0936C14.7189 14.803 15.0124 15.5134 15.5417 16.0431C15.9345 16.436 16.6081 16.6204 17.3518 16.6204Z" fill="#273777"/>
        <path fill-rule="evenodd" clip-rule="evenodd" d="M11.1234 22.1611C13.8559 21.7513 14.7429 21.2084 15.166 20.9651C15.7701 20.6177 16.9332 19.9142 16.5977 18.9408C16.3597 18.2511 15.5248 18.2478 14.0565 18.458C12.5776 18.6692 10.5429 19.0507 8.41723 18.9658C7.35416 18.9233 5.51298 18.4335 5.39424 16.9023C5.35483 16.393 5.42279 15.6657 6.0531 14.839C7.93773 12.3668 10.6032 11.7602 12.2719 10.8879C12.8395 10.591 13.2147 10.3947 13.4448 10.1974C14.1901 9.55879 14.4516 8.39037 14.081 7.67517C13.8377 7.20629 13.1508 6.56511 11.2818 7.03677H11.2816C8.02237 7.86035 3.74834 9.57647 1.4446 13.1181C-0.0264765 15.3797 0.106408 17.407 0.566702 18.4699C1.61234 20.8845 4.36224 21.9602 6.01293 22.1545C7.26119 22.3015 9.18523 22.4516 11.1234 22.1611Z" fill="#273777"/>
        <path fill-rule="evenodd" clip-rule="evenodd" d="M31.5577 12.9789C31.3273 11.1145 30.4356 9.26978 28.7485 7.87147C27.3158 6.68309 25.0219 6.53404 24.2173 7.28789C23.6655 7.80503 23.6292 8.58086 24.1246 9.26549C25.8526 11.6524 26.4907 13.6828 26.2315 15.2976C25.8751 17.52 24.7933 19.1272 21.0652 20.5948C19.9074 21.0508 18.4212 21.4663 17.113 21.8407C15.9148 22.1833 14.8805 22.4794 14.2303 22.7482C13.4976 23.0503 13.0729 23.716 13.2202 24.3304C13.3311 24.793 13.7427 25.3139 15.0344 25.3139C15.1708 25.3139 15.3173 25.3081 15.4742 25.296C17.494 25.1363 23.3942 24.2867 26.4 22.2902C31.602 18.8364 31.8879 15.6502 31.5577 12.9789ZM12.4591 39.1291C12.407 35.3808 12.8701 31.0886 12.0228 29.2254C11.3712 27.7932 9.25013 26.7789 7.81695 27.0987C7.27935 27.218 6.03135 27.7167 6.05333 29.7587C6.08642 32.8011 7.61737 41.476 8.32221 44.2001C8.75901 45.8885 9.63008 47.2701 10.5823 47.3222C10.6065 47.3237 10.6323 47.3244 10.6591 47.3244C11.0122 47.3244 11.3427 47.1926 11.7946 46.4342C12.6586 44.9843 12.4848 40.9846 12.4591 39.1291ZM24.3681 41.2934C23.8664 38.1221 22.9625 33.7606 22.0954 31.4382C21.2673 29.2198 20.4816 27.5219 18.2946 27.7915C17.2626 27.9201 16.004 28.1863 15.4249 29.1153C15.0715 29.6819 15.0364 30.3883 15.3214 31.2141C17.2366 36.7715 20.8318 45.6662 22.4645 47.1087C22.6704 47.2901 23.2022 47.7607 23.7916 47.7607C23.9621 47.7607 24.1375 47.7208 24.311 47.6243C25.0644 47.2032 25.1806 46.1065 24.74 43.5787C24.625 42.9185 24.5017 42.1379 24.3681 41.2934Z" fill="#273777"/>
    </g>
    <defs>
        <clipPath id="clip0">
            <rect width="101.053" height="48" fill="white" transform="translate(0.253174)"/>
        </clipPath>
    </defs>
</svg>
