<svg width="81" height="48" viewBox="0 0 81 48" fill="none" xmlns="http://www.w3.org/2000/svg">
    <g clip-path="url(#clip0)">
        <path d="M15.3234 44.858C15.3234 45.3501 15.3612 45.8422 15.3612 46.3343L15.3234 46.41C14.5686 46.6372 13.9269 46.8643 12.8324 46.8643C12.1908 46.8643 11.7379 46.7507 11.3982 46.675C10.983 46.5614 10.1905 46.2965 9.58657 45.5015C9.09592 44.8958 8.83173 44.0252 8.83173 43.0409C8.83173 42.3217 8.9827 41.451 9.36012 40.8075C10.1905 39.369 11.5114 39.0283 12.7192 39.0283C13.8137 39.0283 14.5308 39.3312 14.9837 39.5204L15.0215 39.5961C14.946 40.2397 14.9082 40.3911 14.8705 41.0725L14.795 41.1103C14.3044 40.7696 13.8137 40.4668 13.0211 40.4668C11.7001 40.4668 10.7943 41.3753 10.7943 43.0788C10.7943 43.8737 11.0963 45.4637 12.7192 45.4637C13.0211 45.4637 13.2476 45.4258 13.5118 45.3501C13.5495 44.3659 13.5118 44.1387 13.4363 43.0788L13.474 43.0031L15.2857 42.9652L15.3234 43.0409C15.3234 43.5709 15.2857 44.1009 15.2857 44.6308V44.858" fill="#013A81"/>
        <path d="M26.6084 46.7507C25.8158 46.7507 25.6271 46.7507 24.9477 46.7885L24.8722 46.7128C24.8722 46.3721 24.8722 45.9936 24.8722 45.6529C24.8722 45.2744 24.8722 43.8737 24.8345 43.533C24.7967 43.1545 24.759 42.5867 24.1929 42.5867C23.8532 42.5867 23.6267 42.7759 23.4003 42.8895C23.4003 44.7065 23.438 45.0851 23.4758 46.675L23.4003 46.7507C22.6077 46.7507 22.419 46.7507 21.7019 46.7885L21.6264 46.7128C21.6264 46.0693 21.6641 45.4258 21.6641 44.7822C21.6641 43.1166 21.5886 42.4731 21.5132 41.6024L21.5886 41.5267C22.3435 41.4131 22.5322 41.4132 23.287 41.2239L23.4003 41.2996L23.3625 41.8674C23.8154 41.6024 24.3816 41.2617 24.9854 41.2617C25.3629 41.2617 25.929 41.3374 26.2309 41.8674C26.4951 42.2838 26.4951 42.7381 26.4951 43.7223V44.5173C26.5329 45.5015 26.5329 45.8043 26.5706 46.675L26.6084 46.7507Z" fill="#013A81"/>
        <path d="M32.7981 44.0251C32.7981 43.6466 32.7981 41.981 31.3639 41.4132C30.911 41.2239 30.3826 41.2239 30.1184 41.2239C28.3445 41.2239 27.3632 42.1702 27.3632 44.0251C27.3632 44.6687 27.4764 45.3501 27.8539 45.88C28.1181 46.2586 28.6087 46.8264 30.0429 46.8264C32.232 46.8643 32.7981 45.5772 32.7981 44.0251ZM31.0242 44.0251C31.0242 44.8579 30.911 45.7665 30.0807 45.7665C29.8165 45.7665 29.6278 45.6529 29.5145 45.5393C29.3258 45.3501 29.1371 45.0094 29.1371 44.0251C29.1371 43.7223 29.1371 43.0788 29.3258 42.7381C29.4768 42.4731 29.741 42.2838 30.0807 42.2838C30.3449 42.2838 30.6091 42.4352 30.7223 42.5867C30.9865 42.8895 31.0242 43.4952 31.0242 44.0251Z" fill="#013A81"/>
        <path d="M41.4034 46.7507C40.6863 46.7507 40.4598 46.7507 39.705 46.7885L39.6295 46.7128C39.6295 46.41 39.6672 44.8958 39.6672 44.5551C39.6672 44.3658 39.6672 44.1766 39.6672 43.9873C39.6672 43.1166 39.5917 42.5488 38.9879 42.5488C38.6859 42.5488 38.4595 42.7002 38.2708 42.8138V43.8359V44.2144C38.2708 45.4258 38.3085 45.7286 38.3462 46.675L38.2708 46.7507C37.5914 46.7507 37.3649 46.7507 36.5724 46.7885L36.4969 46.7128C36.5346 45.88 36.5346 45.6529 36.5346 44.1766C36.5346 43.3059 36.4969 42.5867 35.893 42.5867C35.6288 42.5867 35.4023 42.7002 35.2136 42.8895C35.2136 44.6687 35.2514 45.1229 35.2891 46.675L35.2136 46.7507C34.3833 46.7507 34.1568 46.7507 33.5152 46.7885L33.4775 46.7128C33.4775 46.145 33.4775 45.5393 33.4775 44.9715C33.4775 42.9652 33.402 42.3974 33.3265 41.6024L33.402 41.5267C34.1191 41.4131 34.3456 41.3753 35.1381 41.2239L35.2136 41.2996V41.8674C35.6665 41.5267 36.1194 41.2239 36.7988 41.2239C37.5914 41.2239 37.8556 41.6403 38.0066 41.8674C38.4217 41.5646 38.9501 41.2239 39.7805 41.2239C39.9314 41.2239 40.6485 41.2239 41.0259 41.7917C41.3279 42.2081 41.3279 42.8516 41.2901 43.533V44.2901C41.2901 45.4258 41.2901 45.6908 41.3656 46.6371L41.4034 46.7507Z" fill="#013A81"/>
        <path d="M46.9138 45.2366C46.5363 45.4259 46.0834 45.6909 45.3286 45.6909C44.7247 45.6909 44.3095 45.5016 44.0453 45.123C43.8944 44.8959 43.8566 44.7066 43.8189 44.5174L47.1025 44.4417L47.1779 44.3659C47.1779 43.8738 47.1402 43.3439 47.027 42.8517C46.6873 41.6404 45.8947 41.4133 45.555 41.3375C45.2908 41.2618 45.0644 41.2618 44.8379 41.2618C43.2527 41.2618 42.196 42.3218 42.196 44.0631C42.196 44.5552 42.2714 45.0473 42.4224 45.388C43.0263 46.7508 44.385 46.8644 45.1021 46.8644C45.9324 46.8644 46.3099 46.7129 46.8383 46.4858L46.9138 46.4101L46.9892 45.2745L46.9138 45.2366ZM43.8566 43.4196C43.8944 43.1167 43.9698 42.6625 44.3473 42.4353C44.4605 42.3596 44.6115 42.3218 44.7624 42.3218C45.1021 42.3218 45.2908 42.5111 45.4041 42.6625C45.555 42.8896 45.555 43.1167 45.555 43.3817L43.8566 43.4196Z" fill="#013A81"/>
        <path d="M20.9848 44.3659C20.9848 43.8737 20.9848 43.3059 20.8338 42.9274C20.7206 42.6245 20.1544 41.8296 18.8334 42.3217C18.8334 42.3217 18.7957 42.3217 18.7957 42.3596C18.758 42.3974 18.7957 42.3974 18.7957 42.3974C19.1354 42.5488 19.3618 42.8138 19.3618 43.3438L17.6634 43.3816C17.6634 43.3816 17.5879 43.0031 17.8144 42.5488C18.0031 42.1703 18.456 41.6025 19.3996 41.4132C19.777 41.3375 19.8525 41.4132 19.8902 41.3753C19.8902 41.3753 19.928 41.3375 19.8902 41.3375C19.8902 41.3375 19.8525 41.2996 19.777 41.2996C19.626 41.2618 19.2486 41.1482 18.5692 41.1482C16.9841 41.1482 15.9273 42.246 15.9273 43.9873C15.9273 44.4794 16.0028 44.9715 16.1537 45.3122C16.7576 46.675 18.1163 46.7886 18.8334 46.7886C19.6638 46.7886 20.0412 46.6372 20.5696 46.41L20.6451 46.3343L20.7206 45.1987L20.6451 45.1608C20.2677 45.3501 19.8147 45.6151 19.0599 45.6151C18.456 45.6151 18.0408 45.4258 17.8144 45.0472C17.6634 44.8201 17.6257 44.6308 17.5879 44.4416L20.8715 44.3659H20.9848Z" fill="#013A81"/>
        <path d="M7.88816 30.0189C7.62396 29.9432 7.05783 29.7539 6.49169 29.5268C4.982 28.8833 3.54778 28.0126 3.58553 26.4984C3.62327 25.0599 4.94425 24.1514 7.32202 23.6972C9.92625 23.1672 13.776 22.7886 15.7008 21.8044C17.6257 20.9338 17.437 18.7382 16.267 17.6782C16.1537 17.5647 16.0783 17.489 16.0028 17.5268C15.9273 17.5647 15.9273 17.6404 15.965 17.7539C16.0783 18.0568 16.1915 18.6246 15.9273 19.0789C14.9837 20.7445 9.77528 20.7066 5.20845 21.6151C1.47195 22.3344 -0.0754832 24.1514 1.59931e-06 26.082C0.0754863 28.1262 2.03809 29.6782 4.75554 30.0946C5.85007 30.2461 7.32202 30.3218 7.81267 30.2461C7.96364 30.2082 8.00138 30.1703 8.00138 30.0946C8.00138 30.0946 7.96364 30.0568 7.88816 30.0189Z" fill="#0C95D3"/>
        <path d="M2.52875 21.2366C3.39682 20.9337 4.56683 20.6309 6.52944 20.3281C6.79363 20.2902 7.09557 20.2523 7.24654 20.2145C7.32203 20.2145 7.35977 20.1766 7.35977 20.1388C7.39751 20.0631 7.35977 20.0252 7.2088 19.9874C7.05783 19.9495 6.75589 19.9117 6.56718 19.8359C4.45361 19.3438 4.15167 18.7003 4.11393 18.0568C4.11393 17.6782 4.2649 17.2997 4.7178 16.9968C5.32168 16.5804 6.30298 16.3533 6.90686 16.2397C10.983 15.3691 17.0973 15.2555 17.0973 9.72868C17.0973 7.5331 15.7386 6.13247 14.5308 5.37537C13.6627 4.80755 12.8324 4.65613 12.8324 4.65613V6.81386C12.8324 6.81386 14.1157 7.68452 14.1157 9.35013C14.1157 11.2429 13.3608 13.287 9.09592 14.1577C6.41621 14.7255 4.49135 15.1041 3.13262 15.6719C1.7739 16.2397 0.905824 17.3375 0.792597 18.3217C0.717113 19.2303 0.943567 20.4038 2.52875 21.2366Z" fill="#013A81"/>
        <path d="M15.9273 22.8264C15.097 23.205 14.0779 23.5457 12.4172 23.8864C12.0021 23.9621 11.7001 23.9999 11.5492 24.0378C11.3982 24.0756 11.3605 24.1135 11.3982 24.1892C11.4359 24.227 11.4737 24.2649 11.5869 24.3028C11.7756 24.3406 12.1153 24.4163 12.4927 24.5299C13.4363 24.8327 14.0402 25.2113 14.3798 25.5898C14.7195 25.9684 14.8705 26.4605 14.8705 26.9905C14.8705 27.634 14.6818 28.2018 14.2666 28.6939C13.7005 29.2996 12.7947 29.7917 11.4737 30.2081C10.8321 30.3974 9.96399 30.5867 8.94495 30.6624V32.4037C11.5114 32.2523 14.0402 31.6466 15.4366 30.7002C17.0596 29.6403 17.8521 28.2397 17.8521 26.4983C17.8521 25.4763 17.5502 24.5677 16.9841 23.8106C16.6444 23.3185 16.267 23.0535 15.9273 22.8264Z" fill="#013A81"/>
        <path d="M4.75553 14.0063C5.6236 13.7413 7.92589 13.2492 7.92589 13.2492C7.96363 13.2492 8.03911 13.2113 8.03911 13.1735C8.03911 13.1356 8.03911 13.0599 7.96363 13.0599C7.88815 13.022 7.09556 12.8706 6.34071 12.3785C5.32166 11.6971 4.52907 10.7129 4.56682 9.27441C4.6423 7.34381 6.22748 6.13246 8.03911 5.56463C9.69978 5.07252 11.2095 4.84539 12.1153 4.23971C13.8892 3.10407 13.7005 1.17347 12.7192 0.227095C12.5682 0.113531 12.4927 -3.40566e-05 12.4172 0.0378208C12.3417 0.0756757 12.3417 0.151386 12.3795 0.26495C12.455 0.49208 12.6814 1.0599 12.4172 1.58987C11.9266 2.53624 9.20913 2.87694 7.17104 3.29334C6.22748 3.48262 5.43489 3.7476 4.75553 4.01258C3.47229 4.54255 2.60421 5.22394 1.88711 6.0946C1.24549 6.88956 0.830322 8.06306 0.830322 9.23656C0.830322 11.8864 2.86841 13.287 4.75553 14.0063Z" fill="#0C95D3"/>
        <path d="M51.8203 47.0157C53.028 47.4321 53.2922 47.5457 54.3113 47.9999L54.4245 47.9621L54.8397 47.5078L54.8019 47.4321C53.8961 47.1671 53.6319 47.0914 52.4996 46.7129C52.9525 46.5236 53.33 46.3343 53.7829 45.6908C54.3113 44.9337 54.5377 44.0252 54.5377 43.1167C54.5377 42.246 54.349 40.8832 53.3677 40.0504C52.8016 39.5583 52.009 39.369 51.3296 39.369C51.1032 39.369 50.839 39.4069 50.6125 39.4447C50.0464 39.5583 49.2538 39.7854 48.6877 40.6561C48.1215 41.451 48.0083 42.5867 48.0083 43.1545C48.0083 45.7665 49.518 46.675 50.6125 46.8264C50.8767 46.8643 51.1032 46.8643 51.3674 46.8643L51.8203 47.0157ZM53.8206 43.1545C53.8206 43.8359 53.7074 44.7444 53.2167 45.3879C53.028 45.6529 52.5374 46.3722 51.2541 46.3722C50.4238 46.3722 49.7445 46.0693 49.2915 45.3879C48.8009 44.7066 48.6877 43.7223 48.6877 43.1167C48.6877 41.981 49.1028 40.9211 49.7445 40.429C50.0464 40.2018 50.5748 39.9368 51.3296 39.9368C52.6129 39.9368 53.4809 40.6561 53.7451 42.0189C53.7829 42.3974 53.8206 42.776 53.8206 43.1545Z" fill="#013A81"/>
        <path d="M59.5197 46.7129L58.9536 46.7507L58.8781 46.675L58.9158 46.1829C58.6894 46.4101 58.1987 46.8265 57.1797 46.8265C56.991 46.8265 56.3494 46.8265 55.8964 46.3343C55.4813 45.8801 55.4813 45.3123 55.4435 44.8201V42.776C55.4435 42.3596 55.4435 42.1324 55.4058 41.5268L55.4813 41.4511L56.0852 41.4132L56.1606 41.4889C56.1229 42.4731 56.1229 43.4195 56.1229 44.4037C56.1229 45.2366 56.1606 45.6151 56.4248 45.9179C56.6135 46.1451 56.9532 46.2965 57.3307 46.2965C57.4816 46.2965 57.5949 46.2586 57.7458 46.2586C58.312 46.1451 58.6139 45.8801 58.9158 45.653C58.9158 43.6088 58.9158 43.1924 58.8404 41.5646L58.9158 41.4889C59.2178 41.4889 59.2555 41.4889 59.5197 41.4511L59.5952 41.5268C59.5952 42.1703 59.5575 42.776 59.5575 43.4195C59.5575 44.7444 59.5952 45.5015 59.6329 46.675L59.5197 46.7129Z" fill="#013A81"/>
        <path d="M64.9546 43.9873C64.9546 43.4574 64.9169 42.776 64.464 42.1703C64.0111 41.5646 63.4072 41.4132 62.7656 41.4132C61.2559 41.4132 60.3878 42.5488 60.3878 44.1387C60.3878 45.6908 61.2936 46.8643 62.9543 46.8643C63.8223 46.8643 64.2753 46.5993 64.6904 46.3722L64.7282 46.2586L64.7659 45.6908L64.6904 45.6529C64.464 45.8801 63.9356 46.3343 62.992 46.3343C62.5391 46.3343 61.7088 46.1829 61.2559 45.2365C61.0672 44.7823 61.0294 44.4416 61.0294 44.1009H64.8791L64.9546 43.9873ZM63.8223 39.3312C63.6714 39.3312 63.5204 39.3312 63.3694 39.3312C63.2185 39.3312 63.1052 39.3312 62.9165 39.3312L62.841 39.369C62.6901 39.7476 62.4259 40.3533 62.1994 40.8454L62.2372 40.9211C62.4636 40.9211 62.5391 40.9211 62.7278 40.9211L62.8033 40.8832C63.1807 40.2018 63.294 40.0504 63.8223 39.4069V39.3312ZM61.0672 43.5331C61.1049 43.3059 61.1804 42.8138 61.5201 42.4353C61.822 42.0946 62.2749 41.9053 62.7656 41.9053C63.0298 41.9053 63.5959 41.9053 64.0111 42.5488C64.2375 42.9274 64.2375 43.2302 64.2753 43.5331H61.0672Z" fill="#013A81"/>
        <path d="M66.4266 38.6498L65.785 38.7633L65.7095 38.8391C65.785 39.634 65.785 39.8233 65.8227 41.6782C65.8227 42.511 65.8604 43.3816 65.8604 44.2145C65.8604 45.0473 65.8604 45.8801 65.8604 46.7129L65.9359 46.7886L67.1814 46.7507C67.8608 46.7129 68.6911 46.675 69.4082 46.0315C69.9366 45.5772 70.314 44.7823 70.314 43.9495C70.314 43.1545 70.0121 42.3974 69.446 41.9432C69.0308 41.6025 68.5401 41.451 68.0872 41.451C67.8985 41.451 67.4456 41.4889 66.955 41.6782C66.7285 41.7539 66.653 41.8296 66.5021 41.9432C66.4643 40.3154 66.5021 40.0126 66.5398 38.7255L66.4266 38.6498ZM66.955 46.1829C66.804 46.1829 66.6153 46.1829 66.4643 46.1829V42.511C66.6153 42.3974 66.7285 42.3217 66.955 42.2081C67.3324 42.0189 67.6721 41.981 67.8985 41.981C68.8043 41.981 69.6347 42.7003 69.6347 43.9495C69.6347 44.6309 69.3705 45.388 68.6911 45.8044C68.125 46.145 67.3324 46.1829 66.955 46.1829Z" fill="#013A81"/>
        <path d="M75.5602 43.9873C75.5602 43.4574 75.5225 42.776 75.0696 42.1703C74.6167 41.5646 74.0128 41.4132 73.3712 41.4132C71.8615 41.4132 70.9934 42.5489 70.9934 44.1388C70.9934 45.6908 71.8992 46.8643 73.5599 46.8643C74.428 46.8643 74.8809 46.5993 75.296 46.3722L75.3338 46.2586L75.3715 45.6908L75.296 45.653C75.0696 45.8801 74.5412 46.3343 73.5976 46.3343C73.1447 46.3343 72.3144 46.1829 71.8615 45.2365C71.6728 44.7823 71.635 44.4416 71.635 44.1009H75.4848L75.5602 43.9873ZM71.6728 43.5331C71.7105 43.306 71.786 42.8138 72.1257 42.4353C72.4276 42.0946 72.8805 41.9053 73.3712 41.9053C73.6354 41.9053 74.2015 41.9053 74.6167 42.5489C74.8431 42.9274 74.8431 43.2302 74.8809 43.5331H71.6728Z" fill="#013A81"/>
        <path d="M80.2025 45.7665L80.127 46.3722L80.0515 46.4858C79.5232 46.8265 78.9193 46.8643 78.6551 46.8643C77.4473 46.8643 76.2396 46.1072 76.2396 44.1766C76.2396 42.6246 77.1076 41.3754 78.7683 41.3754C79.4477 41.3754 79.7874 41.5646 80.0515 41.7161L80.0893 41.7918L80.0138 42.3596L79.9383 42.3974C79.7119 42.2082 79.3722 41.9053 78.7306 41.9053C78.2399 41.9053 77.787 42.1325 77.5228 42.3596C77.0322 42.8139 76.8812 43.4574 76.8812 44.1009C76.8812 45.653 77.8625 46.2208 78.6928 46.2208C79.259 46.2208 79.7119 45.9937 80.0893 45.6151L80.2025 45.7665Z" fill="#013A81"/>
    </g>
    <defs>
        <clipPath id="clip0">
            <rect width="80.2025" height="48" fill="white"/>
        </clipPath>
    </defs>
</svg>
