<svg width="141" height="40" viewBox="0 0 141 40" fill="none" xmlns="http://www.w3.org/2000/svg">
    <path d="M43.1057 23.9521C42.7428 24.4948 42.2505 24.9373 41.6738 25.2392C41.0971 25.5412 40.4544 25.6929 39.8044 25.6806C37.3284 25.6806 34.9702 23.7318 34.9702 20.1799V20.1392C34.9702 16.5805 37.2846 14.6317 39.7943 14.6317C40.4301 14.6187 41.06 14.7561 41.6334 15.0328C42.2068 15.3095 42.7076 15.7177 43.0956 16.2246V14.8249H46.1005V28.653H43.0956L43.1057 23.9521ZM43.1461 20.1731V20.1324C43.1461 18.3633 41.9772 17.1906 40.5758 17.1906C39.1744 17.1906 37.9853 18.3429 37.9853 20.1324V20.1799C37.9853 21.9491 39.171 23.1217 40.5758 23.1217C41.9806 23.1217 43.1461 21.9423 43.1461 20.1799V20.1731Z" fill="#00AEEF"/>
    <path d="M47.1382 20.18V20.1393C47.1382 16.5806 49.4492 14.6318 51.9589 14.6318C52.5947 14.6186 53.2248 14.7558 53.7982 15.0325C54.3716 15.3092 54.8724 15.7176 55.2602 16.2247V10.968H58.2651V25.4841H55.2602V23.9522C54.8973 24.4949 54.405 24.9374 53.8283 25.2393C53.2516 25.5413 52.6089 25.693 51.9589 25.6807C49.4896 25.6807 47.1382 23.7319 47.1382 20.18ZM55.3006 20.18V20.1393C55.3006 18.3701 54.1351 17.1974 52.7303 17.1974C51.3256 17.1974 50.1398 18.3498 50.1398 20.1393V20.18C50.1398 21.9492 51.3289 23.1218 52.7303 23.1218C54.1317 23.1218 55.3006 21.9424 55.3006 20.18Z" fill="#00AEEF"/>
    <path d="M59.8248 27.5887L60.8556 25.3247C61.9366 25.9707 63.1725 26.3071 64.4298 26.2974C66.4881 26.2974 67.4616 25.3044 67.4616 23.3962V22.8912C66.5723 23.9656 65.6055 24.6197 64.002 24.6197C61.5327 24.6197 59.2858 22.8099 59.2858 19.6511V19.6104C59.2858 16.4279 61.5596 14.6384 64.002 14.6384C64.6548 14.6245 65.3022 14.7608 65.8948 15.0368C66.4874 15.3129 67.0094 15.7215 67.4212 16.2314V14.8248H70.4261V23.0776C70.4261 24.9858 69.9713 26.3787 69.0786 27.2735C68.0916 28.2666 66.5689 28.7038 64.514 28.7038C62.8841 28.7213 61.2744 28.3385 59.8248 27.5887ZM67.4549 19.6376V19.5969C67.4549 18.1463 66.3298 17.1295 64.8644 17.1295C63.399 17.1295 62.2974 18.1463 62.2974 19.5969V19.6376C62.2974 21.1085 63.4023 22.1015 64.8644 22.1015C66.3264 22.1015 67.4549 21.0881 67.4549 19.6376Z" fill="#00AEEF"/>
    <path d="M36.8839 9.27932C34.5624 5.6231 31.1167 2.81929 27.0649 1.28938C23.0131 -0.240521 18.5742 -0.413834 14.4155 0.795498C10.2567 2.00483 6.60293 4.53145 4.00336 7.99553C1.40379 11.4596 -0.00106362 15.6739 6.03794e-07 20.0049C0.00106483 24.3359 1.40799 28.5495 4.00926 32.0123C6.61053 35.4751 10.2656 38 14.4249 39.2072C18.5842 40.4145 23.0231 40.239 27.0741 38.7071C31.1251 37.1752 34.5694 34.3697 36.8892 30.7124L33.1736 28.3557C31.3642 31.2084 28.6776 33.3967 25.5178 34.5916C22.358 35.7864 18.8957 35.9233 15.6514 34.9817C12.4071 34.04 9.55621 32.0706 7.52722 29.3696C5.49823 26.6686 4.40083 23.382 4.4 20.0038C4.39917 16.6257 5.49496 13.3385 7.52262 10.6365C9.55028 7.93453 12.4002 5.96377 15.6441 5.02049C18.8879 4.07721 22.3502 4.21239 25.5106 5.40572C28.671 6.59904 31.3586 8.78602 33.1695 11.6379L36.8839 9.27932Z" fill="#00AEEF"/>
    <g clip-path="url(#clip0)">
        <mask id="mask0" mask-type="alpha" maskUnits="userSpaceOnUse" x="8" y="8" width="24" height="24">
            <circle cx="20.0102" cy="20.0101" r="11.9456" fill="#C4C4C4"/>
        </mask>
        <g mask="url(#mask0)">
            <path d="M13.8463 12.0792C14.5574 12.0792 15.1338 11.4993 15.1338 10.7839C15.1338 10.0685 14.5574 9.48853 13.8463 9.48853C13.1353 9.48853 12.5588 10.0685 12.5588 10.7839C12.5588 11.4993 13.1353 12.0792 13.8463 12.0792Z" fill="#C54B38"/>
            <rect x="11.7917" y="11.012" width="2.58284" height="6.4571" rx="1.29142" transform="rotate(45 11.7917 11.012)" fill="#00AEEF"/>
            <rect x="6.99754" y="15.8062" width="2.58284" height="3.87426" rx="1.29142" transform="rotate(45 6.99754 15.8062)" fill="#FFB600"/>
            <rect x="20.9234" y="1.88037" width="2.58284" height="9.68565" rx="1.29142" transform="rotate(45 20.9234 1.88037)" fill="#C54B38"/>
            <path d="M8.82389 22.1239C9.53495 22.1239 10.1114 21.5439 10.1114 20.8285C10.1114 20.1131 9.53495 19.5332 8.82389 19.5332C8.11283 19.5332 7.5364 20.1131 7.5364 20.8285C7.5364 21.5439 8.11283 22.1239 8.82389 22.1239Z" fill="#C54B38"/>
            <rect x="13.618" y="14.2083" width="2.58284" height="6.4571" rx="1.29142" transform="rotate(45 13.618 14.2083)" fill="#FFB600"/>
            <rect x="16.5859" y="11.2405" width="2.58284" height="3.87426" rx="1.29142" transform="rotate(45 16.5859 11.2405)" fill="#A8AD00"/>
            <rect x="21.38" y="6.44629" width="2.58284" height="6.4571" rx="1.29142" transform="rotate(45 21.38 6.44629)" fill="#00AEEF"/>
            <rect x="6.76926" y="21.0571" width="2.58284" height="7.74852" rx="1.29142" transform="rotate(45 6.76926 21.0571)" fill="#00AEEF"/>
            <path d="M17.0424 18.9283C17.7535 18.9283 18.3299 18.3484 18.3299 17.633C18.3299 16.9176 17.7535 16.3376 17.0424 16.3376C16.3314 16.3376 15.7549 16.9176 15.7549 17.633C15.7549 18.3484 16.3314 18.9283 17.0424 18.9283Z" fill="#A8AD00"/>
            <rect x="30.5117" y="2.3374" width="2.58284" height="6.4571" rx="1.29142" transform="rotate(45 30.5117 2.3374)" fill="#C54B38"/>
            <rect x="14.9878" y="17.8613" width="2.58284" height="6.4571" rx="1.29142" transform="rotate(45 14.9878 17.8613)" fill="#00AEEF"/>
            <rect x="20.0102" y="12.8389" width="2.58284" height="3.87426" rx="1.29142" transform="rotate(45 20.0102 12.8389)" fill="#FFB600"/>
            <rect x="10.1936" y="22.6555" width="2.58284" height="9.68565" rx="1.29142" transform="rotate(45 10.1936 22.6555)" fill="#C54B38"/>
            <rect x="25.7176" y="7.13135" width="2.58284" height="7.74852" rx="1.29142" transform="rotate(45 25.7176 7.13135)" fill="#A8AD00"/>
            <path d="M15.2161 25.7767C15.9272 25.7767 16.5036 25.1968 16.5036 24.4814C16.5036 23.766 15.9272 23.186 15.2161 23.186C14.505 23.186 13.9286 23.766 13.9286 24.4814C13.9286 25.1968 14.505 25.7767 15.2161 25.7767Z" fill="#00AEEF"/>
            <rect x="27.0873" y="10.7837" width="2.58284" height="6.4571" rx="1.29142" transform="rotate(45 27.0873 10.7837)" fill="#FFB600"/>
            <rect x="13.1615" y="24.7097" width="2.58284" height="3.87426" rx="1.29142" transform="rotate(45 13.1615 24.7097)" fill="#FFB600"/>
            <rect x="22.2932" y="15.5779" width="2.58284" height="9.68565" rx="1.29142" transform="rotate(45 22.2932 15.5779)" fill="#C54B38"/>
            <rect x="7.22585" y="30.6453" width="2.58284" height="6.4571" rx="1.29142" transform="rotate(45 7.22585 30.6453)" fill="#00AEEF"/>
            <rect x="10.1936" y="27.6775" width="2.58284" height="3.87426" rx="1.29142" transform="rotate(45 10.1936 27.6775)" fill="#A8AD00"/>
            <path d="M12.02 33.9957C12.7311 33.9957 13.3075 33.4158 13.3075 32.7004C13.3075 31.985 12.7311 31.405 12.02 31.405C11.3089 31.405 10.7325 31.985 10.7325 32.7004C10.7325 33.4158 11.3089 33.9957 12.02 33.9957Z" fill="#C54B38"/>
            <rect x="35.5342" y="7.35962" width="2.58284" height="7.74852" rx="1.29142" transform="rotate(45 35.5342 7.35962)" fill="#A8AD00"/>
            <rect x="14.9878" y="27.906" width="2.58284" height="3.87426" rx="1.29142" transform="rotate(45 14.9878 27.906)" fill="#A8AD00"/>
            <rect x="29.8268" y="13.0671" width="2.58284" height="3.87426" rx="1.29142" transform="rotate(45 29.8268 13.0671)" fill="#C54B38"/>
            <rect x="26.859" y="16.0349" width="2.58284" height="9.68565" rx="1.29142" transform="rotate(45 26.859 16.0349)" fill="#00AEEF"/>
            <rect x="19.7819" y="23.1121" width="2.58284" height="6.4571" rx="1.29142" transform="rotate(45 19.7819 23.1121)" fill="#FFB600"/>
            <path d="M25.9459 25.0919C26.6569 25.0919 27.2334 24.512 27.2334 23.7966C27.2334 23.0812 26.6569 22.5012 25.9459 22.5012C25.2348 22.5012 24.6584 23.0812 24.6584 23.7966C24.6584 24.512 25.2348 25.0919 25.9459 25.0919Z" fill="#C54B38"/>
            <rect x="16.8141" y="31.1018" width="2.58284" height="3.87426" rx="1.29142" transform="rotate(45 16.8141 31.1018)" fill="#00AEEF"/>
            <rect x="28.9137" y="19.0022" width="2.58284" height="3.87426" rx="1.29142" transform="rotate(45 28.9137 19.0022)" fill="#A8AD00"/>
            <rect x="23.8912" y="24.0249" width="2.58284" height="9.68565" rx="1.29142" transform="rotate(45 23.8912 24.0249)" fill="#A8AD00"/>
            <rect x="33.7078" y="14.2083" width="2.58284" height="6.4571" rx="1.29142" transform="rotate(45 33.7078 14.2083)" fill="#FFB600"/>
            <rect x="31.6532" y="21.2854" width="2.58284" height="7.74852" rx="1.29142" transform="rotate(45 31.6532 21.2854)" fill="#00AEEF"/>
            <rect x="25.9459" y="26.9927" width="2.58284" height="3.87426" rx="1.29142" transform="rotate(45 25.9459 26.9927)" fill="#FFB600"/>
            <rect x="34.621" y="18.3176" width="2.58284" height="3.87426" rx="1.29142" transform="rotate(45 34.621 18.3176)" fill="#C54B38"/>
            <rect x="22.9781" y="29.9604" width="2.58284" height="9.68565" rx="1.29142" transform="rotate(45 22.9781 29.9604)" fill="#00AEEF"/>
        </g>
    </g>
    <rect x="78.9328" y="4.99585" width="1.9983" height="29.9745" fill="#FFB600"/>
    <path d="M90.312 26V14.832H95.336C95.848 14.832 96.3067 14.9173 96.712 15.088C97.128 15.248 97.48 15.4826 97.768 15.792C98.056 16.0906 98.2747 16.4533 98.424 16.88C98.5733 17.3066 98.648 17.776 98.648 18.288C98.648 18.8106 98.5733 19.2853 98.424 19.712C98.2747 20.128 98.056 20.4906 97.768 20.8C97.48 21.0986 97.128 21.3333 96.712 21.504C96.3067 21.664 95.848 21.744 95.336 21.744H92.424V26H90.312ZM92.424 19.92H95.144C95.5493 19.92 95.8693 19.8133 96.104 19.6C96.3387 19.376 96.456 19.0613 96.456 18.656V17.92C96.456 17.5146 96.3387 17.2053 96.104 16.992C95.8693 16.7786 95.5493 16.672 95.144 16.672H92.424V19.92Z" fill="#0093CD"/>
    <path d="M103.753 26.192C103.156 26.192 102.617 26.0906 102.137 25.888C101.668 25.6853 101.263 25.392 100.921 25.008C100.591 24.624 100.335 24.1653 100.153 23.632C99.9722 23.088 99.8815 22.48 99.8815 21.808C99.8815 21.136 99.9722 20.5333 100.153 20C100.335 19.4666 100.591 19.0133 100.921 18.64C101.263 18.256 101.668 17.9626 102.137 17.76C102.617 17.5573 103.156 17.456 103.753 17.456C104.351 17.456 104.889 17.5573 105.369 17.76C105.849 17.9626 106.255 18.256 106.585 18.64C106.927 19.0133 107.188 19.4666 107.369 20C107.551 20.5333 107.641 21.136 107.641 21.808C107.641 22.48 107.551 23.088 107.369 23.632C107.188 24.1653 106.927 24.624 106.585 25.008C106.255 25.392 105.849 25.6853 105.369 25.888C104.889 26.0906 104.351 26.192 103.753 26.192ZM103.753 24.544C104.297 24.544 104.724 24.3786 105.033 24.048C105.343 23.7173 105.497 23.232 105.497 22.592V21.04C105.497 20.4106 105.343 19.9306 105.033 19.6C104.724 19.2693 104.297 19.104 103.753 19.104C103.22 19.104 102.799 19.2693 102.489 19.6C102.18 19.9306 102.025 20.4106 102.025 21.04V22.592C102.025 23.232 102.18 23.7173 102.489 24.048C102.799 24.3786 103.22 24.544 103.753 24.544Z" fill="#0093CD"/>
    <path d="M109.777 26V17.648H111.825V19.376H111.905C111.958 19.152 112.038 18.9386 112.145 18.736C112.262 18.5226 112.412 18.336 112.593 18.176C112.774 18.016 112.988 17.888 113.233 17.792C113.489 17.696 113.782 17.648 114.113 17.648H114.561V19.584H113.921C113.228 19.584 112.705 19.6853 112.353 19.888C112.001 20.0906 111.825 20.4213 111.825 20.88V26H109.777Z" fill="#0093CD"/>
    <path d="M119.049 26C118.345 26 117.806 25.8186 117.433 25.456C117.07 25.0826 116.889 24.5546 116.889 23.872V19.28H115.657V17.648H116.297C116.606 17.648 116.814 17.5786 116.921 17.44C117.038 17.2906 117.097 17.072 117.097 16.784V15.36H118.937V17.648H120.649V19.28H118.937V24.368H120.521V26H119.049Z" fill="#0093CD"/>
    <path d="M128.889 26C128.441 26 128.084 25.872 127.817 25.616C127.561 25.3493 127.401 24.9973 127.337 24.56H127.241C127.103 25.104 126.82 25.5146 126.393 25.792C125.967 26.0586 125.439 26.192 124.809 26.192C123.956 26.192 123.3 25.968 122.841 25.52C122.383 25.072 122.153 24.4746 122.153 23.728C122.153 22.864 122.463 22.224 123.081 21.808C123.7 21.3813 124.58 21.168 125.721 21.168H127.145V20.56C127.145 20.0906 127.023 19.728 126.777 19.472C126.532 19.216 126.137 19.088 125.593 19.088C125.113 19.088 124.724 19.1946 124.425 19.408C124.137 19.6106 123.892 19.856 123.689 20.144L122.473 19.056C122.783 18.576 123.193 18.192 123.705 17.904C124.217 17.6053 124.895 17.456 125.737 17.456C126.868 17.456 127.727 17.712 128.313 18.224C128.9 18.736 129.193 19.472 129.193 20.432V24.368H130.025V26H128.889ZM125.497 24.704C125.956 24.704 126.345 24.6026 126.665 24.4C126.985 24.1973 127.145 23.8986 127.145 23.504V22.4H125.833C124.767 22.4 124.233 22.7413 124.233 23.424V23.696C124.233 24.0373 124.34 24.2933 124.553 24.464C124.777 24.624 125.092 24.704 125.497 24.704Z" fill="#0093CD"/>
    <path d="M133.027 16.432C132.6 16.432 132.291 16.336 132.099 16.144C131.917 15.952 131.827 15.7066 131.827 15.408V15.088C131.827 14.7893 131.917 14.544 132.099 14.352C132.291 14.16 132.6 14.064 133.027 14.064C133.443 14.064 133.747 14.16 133.939 14.352C134.131 14.544 134.227 14.7893 134.227 15.088V15.408C134.227 15.7066 134.131 15.952 133.939 16.144C133.747 16.336 133.443 16.432 133.027 16.432ZM132.003 17.648H134.051V26H132.003V17.648Z" fill="#0093CD"/>
    <path d="M138.793 26C138.089 26 137.571 25.824 137.241 25.472C136.91 25.12 136.745 24.624 136.745 23.984V14.16H138.793V24.368H139.897V26H138.793Z" fill="#0093CD"/>
    <defs>
        <clipPath id="clip0">
            <rect x="8.06458" y="8.06445" width="23.871" height="23.871" rx="11.9355" fill="white"/>
        </clipPath>
    </defs>
</svg>