<svg width="2020" height="762" viewBox="0 0 2020 762" fill="none" xmlns="http://www.w3.org/2000/svg">
<path opacity="0.05" fill-rule="evenodd" clip-rule="evenodd" d="M1117.87 -977.921C1117.87 -934.247 1082.77 -898.842 1039.47 -898.842C996.176 -898.842 961.075 -934.247 961.075 -977.921C961.075 -1021.6 996.176 -1057 1039.47 -1057C1082.77 -1057 1117.87 -1021.6 1117.87 -977.921ZM1291.45 -845.244C1291.45 -801.57 1256.35 -766.165 1213.05 -766.165C1169.75 -766.165 1134.65 -801.57 1134.65 -845.244C1134.65 -888.918 1169.75 -924.323 1213.05 -924.323C1256.35 -924.323 1291.45 -888.918 1291.45 -845.244ZM989.612 -540.129C973.835 -540.112 958.408 -544.818 945.284 -553.651C932.161 -562.484 921.931 -575.046 915.891 -589.748C909.851 -604.449 908.272 -620.628 911.355 -636.235C914.438 -651.842 922.043 -666.175 933.208 -677.42L981.337 -725.965C996.367 -740.564 1016.47 -748.635 1037.34 -748.447C1058.2 -748.258 1078.16 -739.825 1092.93 -724.957C1107.7 -710.09 1116.1 -689.973 1116.33 -668.928C1116.55 -647.883 1108.59 -627.587 1094.15 -612.399L1046.02 -563.853C1038.64 -556.331 1029.85 -550.361 1020.17 -546.288C1010.49 -542.216 1000.1 -540.122 989.612 -540.129ZM604.79 -151.544C594.314 -151.496 583.932 -153.55 574.249 -157.585C564.566 -161.62 555.774 -167.556 548.386 -175.048C533.531 -190.148 525.195 -210.559 525.195 -231.831C525.195 -253.104 533.531 -273.514 548.386 -288.615L789.466 -531.563C796.858 -539.049 805.641 -544.993 815.311 -549.055C824.981 -553.117 835.35 -555.219 845.825 -555.239C856.3 -555.26 866.677 -553.199 876.362 -549.174C886.048 -545.149 894.853 -539.24 902.274 -531.783C909.696 -524.326 915.589 -515.468 919.616 -505.714C923.643 -495.96 925.726 -485.501 925.747 -474.935C925.767 -464.369 923.724 -453.903 919.734 -444.133C915.744 -434.364 909.885 -425.483 902.492 -417.997L661.195 -175.048C653.806 -167.556 645.015 -161.62 635.332 -157.585C625.649 -153.55 615.267 -151.496 604.79 -151.544ZM1600.69 380.703C1584.92 380.72 1569.49 376.015 1556.37 367.182C1543.24 358.349 1533.01 345.786 1526.97 331.085C1520.93 316.383 1519.35 300.204 1522.44 284.597C1525.52 268.99 1533.12 254.657 1544.29 243.413L1882.5 -98.1651C1889.85 -105.867 1898.65 -112.012 1908.39 -116.241C1918.12 -120.47 1928.6 -122.697 1939.2 -122.793C1949.8 -122.889 1960.31 -120.851 1970.12 -116.799C1979.93 -112.746 1988.84 -106.761 1996.33 -99.1934C2003.82 -91.6256 2009.73 -82.6274 2013.73 -72.725C2017.73 -62.8226 2019.73 -52.2152 2019.61 -41.5237C2019.5 -30.8322 2017.27 -20.2712 2013.06 -10.4591C2008.85 -0.646851 2002.74 8.21948 1995.09 15.6211L1656.44 357.199C1641.65 372.131 1621.62 380.576 1600.69 380.703ZM1407.96 575.107C1392.18 575.124 1376.76 570.418 1363.63 561.585C1350.51 552.752 1340.28 540.19 1334.24 525.488C1328.2 510.787 1326.62 494.608 1329.7 479.001C1332.79 463.394 1340.39 449.06 1351.56 437.816L1401.21 387.733C1416.27 373.164 1436.39 365.131 1457.25 365.36C1478.12 365.589 1498.06 374.062 1512.8 388.958C1527.54 403.855 1535.9 423.987 1536.09 445.033C1536.28 466.078 1528.28 486.359 1513.8 501.519L1464.37 551.603C1449.36 566.614 1429.1 575.058 1407.96 575.107ZM937.662 991.248C950.785 1000.08 966.213 1004.79 981.99 1004.77C1003.07 1004.76 1023.28 996.304 1038.18 981.265L1320.2 697.239C1334.64 682.051 1342.61 661.755 1342.38 640.71C1342.15 619.665 1333.75 599.549 1318.98 584.681C1304.21 569.813 1284.26 561.38 1263.39 561.191C1242.53 561.003 1222.42 569.074 1207.39 583.673L925.585 867.479C914.421 878.723 906.815 893.056 903.733 908.663C900.65 924.27 902.228 940.449 908.268 955.151C914.308 969.852 924.538 982.415 937.662 991.248ZM172.419 225.249C185.629 234.247 201.209 239.044 217.148 239.02C227.841 238.883 238.393 236.553 248.165 232.172C257.937 227.792 266.722 221.452 273.988 213.538L517.899 -28.0925C525.577 -35.4528 531.724 -44.2828 535.98 -54.0667C540.236 -63.8506 542.516 -74.3923 542.686 -85.0752C542.857 -95.7581 540.915 -106.368 536.974 -116.285C533.032 -126.202 527.17 -135.228 519.731 -142.833C512.292 -150.439 503.424 -156.473 493.647 -160.583C483.869 -164.692 473.377 -166.794 462.785 -166.767C452.192 -166.739 441.711 -164.582 431.955 -160.422C422.198 -156.262 413.362 -150.182 405.961 -142.538L162.051 100.411C150.51 111.501 142.53 125.826 139.143 141.536C135.755 157.246 137.115 173.62 143.047 188.542C148.979 203.465 159.21 216.251 172.419 225.249ZM956.508 108.978C940.777 108.892 925.421 104.125 912.364 95.2744C899.307 86.424 889.13 73.8839 883.108 59.2253C877.086 44.5668 875.486 28.4415 878.509 12.87C881.532 -2.70166 889.044 -17.0272 900.103 -28.3118L949.756 -78.3951C964.814 -92.9642 984.936 -100.997 1005.8 -100.767C1026.66 -100.538 1046.61 -92.0659 1061.35 -77.1696C1076.09 -62.2731 1084.45 -42.1407 1084.64 -21.0952C1084.82 -0.0498047 1076.82 20.2306 1062.35 35.3909L1012.69 85.2546C1005.36 92.7701 996.61 98.7382 986.964 102.811C977.318 106.884 966.965 108.98 956.508 108.978ZM1250.31 -246.389C1263.39 -237.567 1278.76 -232.845 1294.5 -232.819C1304.94 -232.776 1315.29 -234.833 1324.94 -238.868C1334.58 -242.904 1343.34 -248.838 1350.68 -256.323L1543.42 -450.726C1557.18 -466.016 1564.58 -486.062 1564.09 -506.707C1563.59 -527.352 1555.24 -547.015 1540.76 -561.617C1526.29 -576.22 1506.79 -584.644 1486.33 -585.142C1465.86 -585.64 1445.98 -578.174 1430.83 -564.293L1238.09 -369.89C1227 -358.634 1219.46 -344.32 1216.42 -328.75C1213.38 -313.181 1214.98 -297.052 1221.01 -282.396C1227.04 -267.739 1237.24 -255.211 1250.31 -246.389ZM426.432 643.421C410.699 643.395 395.326 638.674 382.249 629.852C369.172 621.029 358.976 608.501 352.945 593.845C346.914 579.188 345.318 563.06 348.358 547.49C351.397 531.92 358.937 517.606 370.027 506.351L755.494 117.545C770.524 102.947 790.63 94.8751 811.495 95.0636C832.359 95.2522 852.319 103.686 867.087 118.553C881.856 133.421 890.255 153.537 890.483 174.582C890.71 195.627 882.746 215.923 868.302 231.111L482.618 619.917C475.27 627.403 466.517 633.337 456.87 637.372C447.223 641.408 436.875 643.464 426.432 643.421ZM1232.43 -170.875C1232.43 -127.2 1197.33 -91.7953 1154.03 -91.7953C1110.73 -91.7953 1075.63 -127.2 1075.63 -170.875C1075.63 -214.549 1110.73 -249.954 1154.03 -249.954C1197.33 -249.954 1232.43 -214.549 1232.43 -170.875ZM547.296 -401.082C531.519 -401.065 516.092 -405.771 502.968 -414.604C489.844 -423.436 479.615 -435.999 473.575 -450.701C467.535 -465.402 465.956 -481.581 469.039 -497.188C472.122 -512.795 479.727 -527.128 490.892 -538.372L540.545 -588.236C555.703 -602.118 575.577 -609.583 596.045 -609.085C616.513 -608.587 636.006 -600.164 650.484 -585.561C664.961 -570.958 673.312 -551.296 673.806 -530.651C674.3 -510.005 666.898 -489.96 653.136 -474.67L603.482 -424.586C588.584 -409.547 568.374 -401.093 547.296 -401.082ZM21.1309 71.5077C34.2014 80.4015 49.5933 85.1857 65.3597 85.2549C75.8616 85.2087 86.251 83.0697 95.9308 78.9607C105.611 74.8517 114.39 68.8538 121.764 61.3115L460.844 -280.267C475.317 -295.427 483.319 -315.707 483.132 -336.753C482.945 -357.798 474.584 -377.931 459.844 -392.827C445.104 -407.724 425.161 -416.196 404.297 -416.425C383.432 -416.654 363.311 -408.622 348.253 -394.053L9.60861 -52.2551C-1.59181 -41.0624 -9.24965 -26.7705 -12.3964 -11.1874C-15.5431 4.39587 -14.0373 20.5704 -8.06937 35.2903C-2.10146 50.0101 8.06046 62.614 21.1309 71.5077ZM741.344 -597.023C730.831 -596.946 720.408 -598.985 710.685 -603.021C700.963 -607.057 692.136 -613.008 684.722 -620.527C669.867 -635.627 661.531 -656.037 661.531 -677.31C661.531 -698.583 669.867 -718.993 684.722 -734.093L829.326 -879.951C844.384 -894.52 864.506 -902.552 885.37 -902.323C906.235 -902.094 926.178 -893.621 940.918 -878.725C955.658 -863.828 964.019 -843.696 964.206 -822.65C964.393 -801.605 956.39 -781.325 941.917 -766.164L797.531 -620.527C790.168 -613.061 781.412 -607.14 771.768 -603.106C762.125 -599.072 751.784 -597.004 741.344 -597.023ZM1156.43 213.319C1140.65 213.336 1125.22 208.63 1112.1 199.797C1098.97 190.964 1088.74 178.401 1082.7 163.7C1076.66 148.999 1075.09 132.82 1078.17 117.213C1081.25 101.606 1088.86 87.2727 1100.02 76.0286L1149.67 26.1648C1164.83 12.2831 1184.71 4.81763 1205.17 5.31567C1225.64 5.81372 1245.14 14.2372 1259.61 28.84C1274.09 43.4427 1282.44 63.1049 1282.94 83.7504C1283.43 104.396 1276.03 124.441 1262.27 139.731L1212.61 189.815C1197.71 204.853 1177.5 213.308 1156.43 213.319ZM630.051 686.442C643.164 695.418 658.631 700.248 674.479 700.315C685.026 700.183 695.444 697.94 705.126 693.717C714.808 689.494 723.563 683.374 730.883 675.712L1069.53 334.134C1077.18 326.733 1083.29 317.866 1087.5 308.054C1091.71 298.242 1093.94 287.681 1094.05 276.989C1094.17 266.298 1092.17 255.69 1088.17 245.788C1084.17 235.886 1078.25 226.887 1070.77 219.319C1063.28 211.752 1054.37 205.766 1044.56 201.714C1034.75 197.662 1024.24 195.624 1013.64 195.72C1003.04 195.816 992.563 198.043 982.827 202.272C973.091 206.501 964.289 212.646 956.936 220.348L619.381 562.146C607.993 573.262 600.149 587.55 596.851 603.184C593.552 618.819 594.949 635.09 600.863 649.92C606.776 664.75 616.939 677.465 630.051 686.442ZM1350.47 17.3783C1339.99 17.4259 1329.61 15.3726 1319.93 11.3376C1310.24 7.30261 1301.45 1.36633 1294.06 -6.12598C1279.21 -21.2262 1270.87 -41.6366 1270.87 -62.9092C1270.87 -84.1818 1279.21 -104.592 1294.06 -119.692L1438.67 -265.549C1453.72 -280.119 1473.85 -288.151 1494.71 -287.922C1515.57 -287.693 1535.52 -279.22 1550.26 -264.324C1565 -249.427 1573.36 -229.295 1573.55 -208.249C1573.73 -187.204 1565.73 -166.924 1551.26 -151.763L1406.87 -6.12598C1399.48 1.36633 1390.69 7.30261 1381.01 11.3376C1371.32 15.3726 1360.94 17.4259 1350.47 17.3783ZM1715.9 -352.317C1715.9 -308.642 1680.8 -273.237 1637.5 -273.237C1594.2 -273.237 1559.1 -308.642 1559.1 -352.317C1559.1 -395.991 1594.2 -431.396 1637.5 -431.396C1680.8 -431.396 1715.9 -395.991 1715.9 -352.317ZM1159.04 518.433C1143.31 518.346 1127.95 513.579 1114.89 504.729C1101.84 495.878 1091.66 483.339 1085.64 468.68C1079.61 454.021 1078.01 437.896 1081.04 422.324C1084.06 406.753 1091.57 392.427 1102.63 381.143L1343.49 138.194C1358.52 123.596 1378.63 115.524 1399.5 115.712C1420.36 115.901 1440.32 124.334 1455.09 139.202C1469.86 154.07 1478.26 174.186 1478.48 195.231C1478.71 216.276 1470.75 236.572 1456.3 251.76L1215.44 494.709C1208.06 502.231 1199.28 508.202 1189.6 512.274C1179.91 516.346 1169.53 518.44 1159.04 518.433ZM1499.33 115.532C1512.43 124.409 1527.85 129.162 1543.64 129.188C1564.55 129.014 1584.57 120.576 1599.39 105.684L1843.52 -135.508C1858.11 -150.578 1866.25 -170.82 1866.19 -191.883C1866.14 -212.945 1857.89 -233.145 1843.23 -248.139C1828.56 -263.133 1808.65 -271.723 1787.77 -272.062C1766.89 -272.401 1746.72 -264.462 1731.58 -249.953L1487.67 -8.3219C1476.46 2.88403 1468.79 17.196 1465.65 32.7997C1462.51 48.4032 1464.04 64.5957 1470.03 79.3245C1476.03 94.0532 1486.22 106.655 1499.33 115.532ZM966.306 712.616C950.573 712.59 935.2 707.869 922.123 699.046C909.046 690.224 898.85 677.696 892.819 663.04C886.788 648.383 885.192 632.254 888.232 616.685C891.271 601.115 898.811 586.801 909.901 575.546L958.248 527C965.501 518.941 974.301 512.452 984.115 507.926C993.928 503.4 1004.55 500.93 1015.34 500.668C1026.13 500.405 1036.85 502.355 1046.87 506.398C1056.89 510.442 1065.99 516.496 1073.62 524.192C1081.25 531.889 1087.25 541.068 1091.26 551.173C1095.27 561.278 1097.2 572.099 1096.94 582.981C1096.68 593.862 1094.24 604.576 1089.75 614.475C1085.26 624.373 1078.83 633.25 1070.84 640.566L1022.71 689.112C1015.32 696.604 1006.53 702.54 996.847 706.575C987.164 710.61 976.782 712.664 966.306 712.616ZM904.672 773.682C904.672 817.357 869.571 852.762 826.272 852.762C782.973 852.762 747.872 817.357 747.872 773.682C747.872 730.008 782.973 694.604 826.272 694.604C869.571 694.604 904.672 730.008 904.672 773.682ZM804.495 -44.5675C788.763 -44.5935 773.39 -49.3148 760.313 -58.137C747.236 -66.9592 737.039 -79.4877 731.008 -94.144C724.977 -108.8 723.381 -124.929 726.421 -140.499C729.461 -156.068 737.001 -170.383 748.091 -181.638L942.131 -377.579C957.09 -392.668 977.379 -401.145 998.535 -401.145C1019.69 -401.145 1039.98 -392.668 1054.94 -377.579C1069.9 -362.49 1078.3 -342.025 1078.3 -320.686C1078.3 -299.347 1069.9 -278.881 1054.94 -263.792L860.682 -68.5109C853.37 -60.9457 844.633 -54.9307 834.984 -50.819C825.336 -46.7073 814.97 -44.5818 804.495 -44.5675ZM1099.18 -399.276C1112.26 -390.453 1127.63 -385.732 1143.36 -385.706C1153.88 -385.706 1164.3 -387.802 1174.02 -391.873C1183.73 -395.944 1192.56 -401.911 1199.98 -409.43L1392.06 -604.492C1406.48 -619.707 1414.41 -640.02 1414.15 -661.068C1413.88 -682.115 1405.44 -702.218 1390.64 -717.058C1375.84 -731.899 1355.86 -740.294 1335 -740.44C1314.13 -740.585 1294.04 -732.471 1279.04 -717.838L1086.96 -522.776C1075.87 -511.521 1068.33 -497.207 1065.29 -481.637C1062.25 -466.067 1063.84 -449.939 1069.87 -435.282C1075.91 -420.626 1086.1 -408.098 1099.18 -399.276ZM515.292 247.147C499.534 247.121 484.136 242.384 471.046 233.534C457.956 224.685 447.76 212.119 441.747 197.427C435.734 182.734 434.174 166.574 437.263 150.987C440.353 135.401 447.954 121.088 459.105 109.857L603.492 -35.7808C610.83 -43.4969 619.62 -49.6592 629.348 -53.907C639.076 -58.1548 649.546 -60.4027 660.146 -60.5192C670.745 -60.6356 681.262 -58.6182 691.079 -54.5851C700.896 -50.552 709.818 -44.5842 717.32 -37.031C724.823 -29.4778 730.757 -20.491 734.774 -10.5964C738.792 -0.701904 740.812 9.90161 740.717 20.5934C740.622 31.2852 738.414 41.8503 734.221 51.6707C730.029 61.4911 723.936 70.3694 716.301 77.7859L571.696 223.643C564.286 231.106 555.491 237.023 545.813 241.056C536.135 245.089 525.764 247.158 515.292 247.147ZM448.211 313.485C448.211 357.16 413.11 392.565 369.811 392.565C326.512 392.565 291.411 357.16 291.411 313.485C291.411 269.811 326.512 234.406 369.811 234.406C413.11 234.406 448.211 269.811 448.211 313.485Z" fill="url(#paint0_linear)"/>
<defs>
<linearGradient id="paint0_linear" x1="716" y1="46.9997" x2="145.5" y2="617.5" gradientUnits="userSpaceOnUse">
<stop stop-color="white"/>
<stop offset="1" stop-color="#105E8B"/>
</linearGradient>
</defs>
</svg>
